<?xml version="1.0" encoding="utf-8"?>
<!-- Generator: Adobe Illustrator 18.1.1, SVG Export Plug-In . SVG Version: 6.00 Build 0)  -->
<svg version="1.1" id="Layer_1" xmlns="http://www.w3.org/2000/svg" xmlns:xlink="http://www.w3.org/1999/xlink" x="0px" y="0px"
	 viewBox="0 0 24.2 24.2" enable-background="new 0 0 24.2 24.2" xml:space="preserve">
<g>
	<g>
		<path fill-rule="evenodd" clip-rule="evenodd" fill="#FFFFFF" d="M13.5,13.1c-0.2,0-0.3-0.1-0.5-0.1c-1.2,0-2.3,0-3.5,0
			c-0.2,0-0.2,0.1-0.2,0.2c0,1,0,1.9,0,2.9c0,0.2,0.1,0.3,0.3,0.3c0.6,0,1.1,0,1.7,0v0c0.6,0,1.3,0,2,0c1,0,1.6-0.6,1.6-1.6
			C14.9,13.9,14.4,13.3,13.5,13.1z M9.5,10.6c0.6,0,1.1,0,1.8,0c0,0,0,0,0,0c0.6,0,1.2,0,1.7,0c0.8,0,1.5-0.7,1.4-1.5
			c0-0.8-0.6-1.4-1.5-1.4c-1.2,0-2.3,0-3.5,0c-0.2,0-0.2,0-0.2,0.2c0,0.8,0,1.6,0,2.4C9.3,10.6,9.3,10.6,9.5,10.6z M12.1,0
			C5.4,0,0,5.4,0,12.1c0,6.7,5.4,12.1,12.1,12.1c6.7,0,12.1-5.4,12.1-12.1C24.2,5.4,18.8,0,12.1,0z M16.8,17.3
			c-0.7,0.9-1.7,1.4-2.8,1.5c-1.1,0.1-2.1,0.1-3.2,0.1c-1.2,0-2.5,0-3.7,0H6.7V5.4c0.1,0,0.2,0,0.2,0c2.1,0,4.2,0,6.3,0
			c0.6,0,1.3,0.1,1.9,0.4c1.2,0.5,1.8,1.5,1.9,2.8c0.1,0.7,0,1.4-0.3,2c-0.2,0.4-0.6,0.7-0.8,1.1c0,0,0,0,0.1,0.1
			c1,0.6,1.5,1.6,1.6,2.7C17.5,15.5,17.4,16.4,16.8,17.3z"/>
	</g>
</g>
</svg>
