<?xml version="1.0" encoding="utf-8"?>
<!-- Generator: Adobe Illustrator 18.1.1, SVG Export Plug-In . SVG Version: 6.00 Build 0)  -->
<svg version="1.1" id="Layer_1" xmlns="http://www.w3.org/2000/svg" xmlns:xlink="http://www.w3.org/1999/xlink" x="0px" y="0px"
	 viewBox="0 0 24 24" enable-background="new 0 0 24 24" xml:space="preserve">
<path fill="#FFFFFF" d="M12,0C5.4,0,0,5.4,0,12c0,6.6,5.4,12,12,12c6.6,0,12-5.4,12-12C24,5.4,18.6,0,12,0z M16.6,6.8h-2.1
	c-1.1,0-0.5,0.7-0.5,1.4v2h1.8l-0.3,2.6h-1.5v6.9h-3.4v-6.9H8.9v-2.6h1.7V8c0-2.3,1.6-3.5,3.7-3.5c1,0,2.3,0.1,2.3,0.1V6.8z"/>
</svg>
