<?xml version="1.0" encoding="utf-8"?>
<!-- Generator: Adobe Illustrator 18.1.1, SVG Export Plug-In . SVG Version: 6.00 Build 0)  -->
<svg version="1.1" id="Layer_1" xmlns="http://www.w3.org/2000/svg" xmlns:xlink="http://www.w3.org/1999/xlink" x="0px" y="0px"
	 viewBox="0 0 18 18" enable-background="new 0 0 18 18" xml:space="preserve">
<path fill="#FFFFFF" d="M9,0c-5,0-9,4-9,9c0,5,4,9,9,9c5,0,9-4,9-9C18,4.1,14,0,9,0z M5.5,9.9C5.2,9.9,5,9.8,4.7,9.6
	C4.6,9.4,4.4,9.2,4.2,9c-0.1-0.1-0.1-0.3,0-0.4c0.1-0.1,0.1-0.1,0.2-0.2c1.8-1.8,3.6-3.6,5.4-5.4c0.4-0.4,0.4-0.4,0.8,0
	c0.3,0.3,0.6,0.6,0.8,0.8c0.2,0.2,0.2,0.3,0,0.6c0,0-0.1,0.1-0.1,0.1c-1.7,1.7-3.4,3.4-5,5C6,9.8,5.8,9.9,5.5,9.9z M11.4,13.7
	c-0.2,0.2-0.4,0.4-0.5,0.5c-0.2,0.2-0.4,0.3-0.7,0.3c-0.3,0-0.6-0.1-0.8-0.3c-0.1-0.2-0.3-0.3-0.5-0.5c-0.2-0.2-0.2-0.3,0-0.5
	c0.3-0.3,0.7-0.7,1-1c0.2-0.2,0.4-0.2,0.5,0c0.3,0.3,0.7,0.7,1,1C11.6,13.4,11.6,13.5,11.4,13.7z M11.4,9.1
	c-0.9,0.9-1.8,1.8-2.8,2.8c-0.2,0.2-0.4,0.4-0.8,0.3c-0.3,0-0.6-0.1-0.8-0.3c-0.1-0.2-0.3-0.3-0.4-0.5c-0.2-0.2-0.2-0.4,0-0.6
	c0.3-0.3,0.6-0.6,0.9-0.9c0.7-0.7,1.5-1.5,2.2-2.2c0,0,0.1-0.1,0.1-0.1c0.3-0.3,0.4-0.3,0.7,0c0.3,0.3,0.6,0.6,0.9,0.9
	C11.6,8.8,11.6,8.9,11.4,9.1z"/>
</svg>
