<?xml version="1.0" encoding="utf-8"?>
<!-- Generator: Adobe Illustrator 18.1.1, SVG Export Plug-In . SVG Version: 6.00 Build 0)  -->
<svg version="1.1" id="Layer_1" xmlns="http://www.w3.org/2000/svg" xmlns:xlink="http://www.w3.org/1999/xlink" x="0px" y="0px"
	 viewBox="0 0 18 18" enable-background="new 0 0 18 18" xml:space="preserve">
<path fill-rule="evenodd" clip-rule="evenodd" fill="#FFFFFF" d="M9,0C4.1,0,0,4.1,0,9c0,4.9,4.1,9,9,9c4.9,0,9-4.1,9-9
	C18,4.1,13.9,0,9,0z M14.2,10.5c-1.2,0-2.4,0-3.6,0c0,1.4,0,2.7,0,4c-1.1,0-2.1,0-3.2,0c0-1.4,0-2.7,0-3.9c-1.2,0-2.4,0-3.7,0
	c0-1.1,0-2.2,0-3.3c1.3,0,2.5,0,3.7,0c0-1.3,0-2.6,0-3.8c1.1,0,2.1,0,3.1,0c0,1.3,0,2.6,0,3.8c1.3,0,2.5,0,3.7,0
	C14.2,8.4,14.2,9.5,14.2,10.5z"/>
</svg>
