<?xml version="1.0" encoding="utf-8"?>
<!-- Generator: Adobe Illustrator 18.1.1, SVG Export Plug-In . SVG Version: 6.00 Build 0)  -->
<svg version="1.1" id="Layer_1" xmlns="http://www.w3.org/2000/svg" xmlns:xlink="http://www.w3.org/1999/xlink" x="0px" y="0px"
	 viewBox="0 0 42 54" enable-background="new 0 0 42 54" xml:space="preserve">
<g>
	<g>
		<path fill="#FFFFFF" d="M7.3,46.8c-0.1,0.7,3.1,2.9,6.1,3.6c2.4,0.6,5.5,0.4,7.6-0.6c0,0-3.1-2.4-6.3-3.1
			C11.8,46,7.3,46.5,7.3,46.8z M12.6,13.7c-1.4,0.6-2.1,2.3-1.5,3.8c0.1,0.4,0.3,0.7,0.6,0.9c0.6-1.9,1.7-3.5,3-4.7
			C14.1,13.5,13.3,13.5,12.6,13.7z M15.3,31.1c0.6,1.5,2.2,2.2,3.7,1.6c0.6-0.3,1.1-0.7,1.4-1.3c-1.9-0.1-3.7-0.8-5.2-1.9
			C15.1,30.1,15.1,30.6,15.3,31.1z M15.2,23.1c-0.5-1.2-1.7-1.9-2.9-1.8c0,0,0,0.1,0,0.1c0,0.7-0.1,2.9,0.3,5.6
			c0.4,0,0.7-0.1,1.1-0.2C15.1,26.2,15.8,24.6,15.2,23.1z M11.1,21.7c-1.2,0.7-1.7,2.2-1.1,3.6c0.3,0.7,0.8,1.2,1.4,1.5
			C11.1,24.5,11.1,22.6,11.1,21.7z M22.9,11.5c0-0.1,0-0.1-0.1-0.2c-0.6-1.5-2.2-2.2-3.7-1.6c-1,0.4-1.6,1.3-1.7,2.3
			c1.1-0.4,2.3-0.7,3.5-0.7C21.6,11.3,22.3,11.4,22.9,11.5z M28.5,17.9c0.1-0.1,0.3-0.1,0.4-0.2c-0.8-1.7-2.1-3.2-3.8-4.1
			c-0.5,0.8-0.7,1.8-0.3,2.7C25.4,17.8,27.1,18.5,28.5,17.9z M16.9,27.4c-0.5,0.2-0.9,0.6-1.2,1c1.5,1.2,3.3,1.8,5.1,1.9
			c0-0.4,0-0.9-0.2-1.3C19.9,27.5,18.3,26.8,16.9,27.4z M14.8,19.1c1.4-0.6,2.1-2.3,1.5-3.8c-0.1-0.3-0.3-0.7-0.6-0.9
			c-1.4,1.2-2.5,2.8-3,4.7C13.3,19.4,14.1,19.4,14.8,19.1z M17.5,13.3c0,0.1,0.1,0.2,0.1,0.2c0.6,1.5,2.2,2.2,3.7,1.6
			c1-0.4,1.6-1.3,1.7-2.3c-0.7-0.2-1.3-0.3-2-0.3C19.8,12.5,18.6,12.8,17.5,13.3z M30.7,19.9c0.1,0.5,0.1,1,0.1,1.6
			c0,1.4-0.3,2.8-0.8,4c0.3,0,0.6-0.1,0.8-0.2c1.4-0.6,2.1-2.3,1.5-3.8C32.1,20.7,31.4,20.1,30.7,19.9z M38.3,3.8
			C33.5-1.1,26-1.3,21,3.2C16-1.3,8.5-1.1,3.7,3.8C-1,8.7-1.2,16.4,3.1,21.5C-1.2,26.6-1,34.3,3.7,39.2c3.4,3.5,8.2,4.5,12.5,3.3
			c0,0,0-0.1,0-0.1c0,0,0,0.1,0,0.1c0,0,0,0,0,0c0,0,0,0,0,0l0,0c2.9,5.8,6.4,9.7,10.5,11.5c0.1,0,0.2,0,0.2,0
			c0.2,0,0.4-0.1,0.5-0.4c0.1-0.3,0-0.6-0.3-0.8c-3.8-1.7-7.1-5.3-9.9-10.8c1.3-0.5,2.6-1.3,3.7-2.3c5,4.4,12.5,4.2,17.3-0.6
			c4.7-4.9,4.9-12.6,0.6-17.7C43.2,16.4,43,8.7,38.3,3.8z M26,34.1c-4.2,1.7-8.7,1.2-12.2-1.1c0.6,2.3,1.7,5.5,3.4,8.9
			c0,0,0,0,0-0.1c-0.1-0.3-0.5-0.4-0.8-0.3c-0.3,0.1-0.4,0.5-0.3,0.8c-2-4.1-3.2-8.2-3.8-10.4c-1.6-1.4-2.8-3.1-3.7-5.2
			c-2.8-7,0.5-14.9,7.3-17.8c6.8-2.9,14.6,0.5,17.4,7.4C36.1,23.3,32.8,31.2,26,34.1z M24.9,19.8c-0.9-2.2-3.4-3.3-5.5-2.4
			c-2.2,0.9-3.2,3.4-2.3,5.7c0.9,2.2,3.4,3.3,5.5,2.4C24.8,24.6,25.8,22.1,24.9,19.8z M30,14.1c-0.6-1.5-2.2-2.2-3.7-1.6
			c-0.1,0.1-0.3,0.1-0.4,0.2c1.6,1,2.9,2.4,3.8,4.1C30.3,16.1,30.4,15,30,14.1z M27.6,27.2c-0.8-0.8-2-1.1-3.1-0.7
			c-1.4,0.6-2.1,2.2-1.6,3.6C24.8,29.6,26.4,28.6,27.6,27.2z M23.6,31.1c0.8,0.8,2,1.2,3.1,0.7c1.4-0.6,2.1-2.2,1.6-3.6
			C27,29.6,25.4,30.6,23.6,31.1z M28.7,19.9c-1.4,0.6-2.1,2.3-1.5,3.8c0.3,0.8,0.9,1.4,1.7,1.6c0.6-1.2,0.9-2.5,0.9-3.9
			c0-0.6-0.1-1.2-0.2-1.7C29.2,19.7,29,19.8,28.7,19.9z"/>
	</g>
</g>
</svg>
