<?xml version="1.0" encoding="utf-8"?>
<!-- Generator: Adobe Illustrator 18.1.1, SVG Export Plug-In . SVG Version: 6.00 Build 0)  -->
<svg version="1.1" id="Layer_1" xmlns="http://www.w3.org/2000/svg" xmlns:xlink="http://www.w3.org/1999/xlink" x="0px" y="0px"
	 viewBox="0 0 24.2 24.2" enable-background="new 0 0 24.2 24.2" xml:space="preserve">
<g>
	<g>
		<path fill-rule="evenodd" clip-rule="evenodd" fill="#FFFFFF" d="M17.6,11.1C17.6,11.1,17.6,11,17.6,11.1C17.4,11,16.4,11,16.3,11
			c0,0,0,0.1,0,0.1c0.1,0.2,0.1,0.5,0.1,0.8c0,0.4,0,0.7-0.1,1.1c-0.3,1.3-1,2.3-2.1,2.9c-0.5,0.3-1.1,0.5-1.8,0.5
			c-0.4,0-0.8,0-1.2-0.1c-1.2-0.2-2.1-0.9-2.8-1.8C8,13.8,7.8,13,7.7,12.1c0-0.3,0-0.7,0.1-1c0,0,0-0.1,0-0.1c-0.1,0-1.2,0-1.2,0
			v5.9c0,0,0,0.1,0,0.1c0,0.3,0.3,0.5,0.5,0.5c0,0,0.1,0,0.1,0h9.7c0,0,0.1,0,0.1,0c0.3,0,0.5-0.2,0.5-0.5c0,0,0-0.1,0-0.1
			L17.6,11.1C17.5,11.1,17.6,11.1,17.6,11.1z M12.1,14.8c1.5,0,2.7-1.2,2.7-2.7c0-1.5-1.2-2.7-2.7-2.7c-1.5,0-2.7,1.2-2.7,2.7
			C9.4,13.6,10.6,14.8,12.1,14.8z M17.5,8.1V7.2c0,0,0,0,0,0c0-0.1,0-0.1,0-0.2c-0.1-0.2-0.3-0.4-0.5-0.4c-0.2,0-0.4,0-0.5,0
			c-0.4,0-0.7,0-1.1,0c-0.3,0-0.5,0.2-0.5,0.4c0,0.1,0,0.1,0,0.2c0,0.5,0,1,0,1.5c0,0,0,0.1,0,0.1c0,0.2,0.1,0.4,0.3,0.5
			c0.1,0,0.1,0,0.2,0c0.3,0,0.7,0,1,0c0.2,0,0.4,0,0.6,0c0.2,0,0.3-0.1,0.4-0.2c0.1-0.1,0.1-0.2,0.1-0.3C17.6,8.6,17.6,8.3,17.5,8.1
			L17.5,8.1z M12.1,0C5.4,0,0,5.4,0,12.1c0,6.7,5.4,12.1,12.1,12.1c6.7,0,12.1-5.4,12.1-12.1C24.2,5.4,18.8,0,12.1,0z M19.1,18.2
			c-0.2,0.6-0.7,0.9-1.3,1c-0.1,0-0.2,0-0.3,0c-1,0-2,0-3,0c-2.6,0-5.3,0-7.9,0c-0.2,0-0.4,0-0.6-0.1c-0.6-0.3-0.9-0.7-1-1.3
			c0-0.1,0-0.2,0-0.3c0-3.2,0-6.5,0-9.7C5,7.4,5,7,5,6.6c0-0.4,0.1-0.8,0.4-1.1C5.7,5.2,6,5.1,6.4,5c0.1,0,0.2,0,0.3,0
			c3.6,0,7.2,0,10.9,0c0.7,0,1.3,0.4,1.5,1c0.1,0.2,0.1,0.4,0.1,0.6c0,1.8,0,3.6,0,5.5c0,1.8,0,3.6,0,5.5
			C19.2,17.8,19.2,18,19.1,18.2z"/>
	</g>
</g>
</svg>
