<?xml version="1.0" encoding="utf-8"?>
<!-- Generator: Adobe Illustrator 18.1.1, SVG Export Plug-In . SVG Version: 6.00 Build 0)  -->
<svg version="1.1" id="Layer_1" xmlns="http://www.w3.org/2000/svg" xmlns:xlink="http://www.w3.org/1999/xlink" x="0px" y="0px"
	 viewBox="0 0 24.2 24.2" enable-background="new 0 0 24.2 24.2" xml:space="preserve">
<path fill-rule="evenodd" clip-rule="evenodd" fill="#FFFFFF" d="M12.1,24.2c-1.8,0-3.4-0.4-5-1.1c-1.1-0.5-2.2-1.2-3.1-2
	c-1.6-1.4-2.7-3.1-3.3-5.1c-0.3-0.8-0.5-1.5-0.5-2.4c0-0.8-0.1-1.5-0.1-2.3c0.1-0.8,0.2-1.7,0.4-2.5c0.3-1.1,0.7-2,1.3-3
	c0.7-1.2,1.6-2.3,2.7-3.1c1.3-1,2.7-1.8,4.3-2.2c0.7-0.2,1.5-0.3,2.2-0.4c0.7-0.1,1.3-0.1,2,0c1.4,0.1,2.7,0.4,4,1
	c1,0.4,1.9,1,2.8,1.7c1.1,0.9,2,1.9,2.7,3C23.2,7,23.7,8.4,24,9.8c0.2,1,0.2,2.1,0.2,3.1c-0.1,2-0.8,3.9-1.8,5.6
	c-0.5,0.9-1.2,1.6-1.9,2.3c-0.9,0.8-1.8,1.5-2.9,2c-1.2,0.6-2.4,1-3.7,1.2C13.3,24.1,12.7,24.1,12.1,24.2z M7.3,13
	C7.3,13,7.3,13,7.3,13c0,2.2,0,4.4,0,6.6c0,0.3,0,0.4,0.4,0.4c0.9,0,1.7,0,2.6,0c0.2,0,0.3-0.1,0.3-0.3c0-1.4,0-2.7,0-4.1
	c0-0.9-0.2-0.7,0.8-0.7c0.1,0,0.2,0.1,0.3,0.2c0.3,0.5,0.6,1.1,0.9,1.6c0.4,0.7,0.8,1.3,1.2,2c0.2,0.4,0.5,0.7,0.9,1
	c0.7,0.5,1.4,0.5,2.2,0.4c0.4,0,0.8-0.2,1.2-0.3c0.1,0,0.2-0.2,0.2-0.3c0-0.3,0-0.6,0.1-0.9c0-0.2,0-0.5,0-0.7
	c0-0.2-0.1-0.3-0.3-0.2c-0.1,0-0.1,0.1-0.2,0.1c-0.6,0.2-1,0.2-1.3-0.3c-0.3-0.5-0.6-1-0.9-1.5c-0.4-0.7-0.9-1.5-1.3-2.2
	c0-0.1,0-0.2,0-0.3c0.2-0.3,0.4-0.6,0.6-1c0.7-1.1,1.3-2.3,2-3.4C17,8.9,17,8.7,17.1,8.6c0-0.1,0-0.2-0.1-0.2c-0.1,0-0.3,0-0.5-0.1
	c-0.7,0-1.4,0-2.1,0c-0.2,0-0.5,0-0.6,0.3c-0.6,1-1.2,2-1.7,3c-0.4,0.7-0.4,0.7-1.3,0.7c-0.2,0-0.3-0.1-0.3-0.3c0-0.8,0-1.7,0-2.5
	c0-1.9,0-3.8,0-5.6c0-0.2-0.1-0.3-0.3-0.3c-1.3,0-2.7,0-4,0C6,3.7,5.9,3.8,5.9,4c0,0.6,0,1.2,0,1.9C5.9,6,6,6.1,6.1,6.1
	c0.3,0,0.5,0,0.8,0c0.4,0,0.4,0,0.4,0.4C7.3,8.6,7.3,10.8,7.3,13z"/>
</svg>
