<?xml version="1.0" encoding="utf-8"?>
<!-- Generator: Adobe Illustrator 18.1.1, SVG Export Plug-In . SVG Version: 6.00 Build 0)  -->
<svg version="1.1" id="Layer_1" xmlns="http://www.w3.org/2000/svg" xmlns:xlink="http://www.w3.org/1999/xlink" x="0px" y="0px"
	 viewBox="0 0 24.2 24.2" enable-background="new 0 0 24.2 24.2" xml:space="preserve">
<path fill-rule="evenodd" clip-rule="evenodd" fill="#FFFFFF" d="M12.1,24.2C5.4,24.2,0,18.8,0,12.1C0,5.3,5.6-0.1,12.3,0
	c6.5,0.1,12,5.5,11.8,12.3C24.1,18.9,18.6,24.2,12.1,24.2z M11.5,15c0.6,0.8,1.4,1.1,2.3,1.1c1.4-0.1,2.5-0.7,3.3-1.8
	c0.7-1,1.1-2.2,1.2-3.4c0.2-2-0.5-3.7-2.2-4.8c-1.1-0.8-2.4-1-3.7-1C10.6,5.2,9,5.8,7.8,7.3c-1.2,1.5-1.6,3.2-0.9,5
	c0.3,0.7,0.7,1.2,1.4,1.6c0.3,0.1,0.4,0.1,0.5-0.2C8.9,13.4,8.9,13.2,9,13c0.1-0.2,0-0.4-0.1-0.6c-0.2-0.3-0.4-0.6-0.5-1
	C8.1,10,8.5,8.7,9.6,7.7c1.2-1.2,2.7-1.4,4.3-1c1.2,0.3,2,1.1,2.2,2.3c0.1,0.4,0.1,0.8,0.1,1.1c0,1.2-0.3,2.3-0.9,3.3
	c-0.4,0.6-0.9,1-1.7,1.1c-1,0.1-1.8-0.7-1.6-1.6c0.1-0.6,0.4-1.2,0.5-1.8c0.1-0.5,0.2-1.1,0.2-1.6c0-0.7-0.5-1.1-1.2-1.1
	c-0.7,0.1-1.1,0.5-1.4,1.1c-0.3,0.8-0.3,1.5,0,2.3c0,0.1,0.1,0.3,0,0.4c-0.2,1.1-0.5,2.2-0.8,3.3c-0.3,1.2-0.6,2.5-0.4,3.8
	c0,0.3,0.1,0.6,0.1,0.9c0,0,0.1,0,0.1,0C10.7,18.8,11.1,16.9,11.5,15z"/>
</svg>
