<?xml version="1.0" encoding="utf-8"?>
<!-- Generator: Adobe Illustrator 18.1.1, SVG Export Plug-In . SVG Version: 6.00 Build 0)  -->
<svg version="1.1" id="Layer_1" xmlns="http://www.w3.org/2000/svg" xmlns:xlink="http://www.w3.org/1999/xlink" x="0px" y="0px"
	 viewBox="0 0 18 18" enable-background="new 0 0 18 18" xml:space="preserve">
<path fill-rule="evenodd" clip-rule="evenodd" fill="#FFFFFF" d="M9,0C4,0,0,4,0,9c0,5,4,9,9,9c5,0,9-4,9-9C18,4,14,0,9,0z
	 M5.5,13.7c-0.7,0-1.3-0.6-1.3-1.3c0-0.7,0.6-1.3,1.3-1.3c0.7,0,1.3,0.6,1.3,1.3C6.8,13.2,6.2,13.7,5.5,13.7z M10.6,13.7
	C10.6,13.7,10.6,13.7,10.6,13.7C10.6,13.7,10.6,13.7,10.6,13.7c-0.6,0-1.2,0-1.8,0c0,0-0.1,0-0.1,0c0-1.2-0.5-2.3-1.3-3.2
	C6.6,9.7,5.5,9.2,4.3,9.2c0,0,0,0,0,0c0,0,0,0,0,0c0-0.6,0-1.2,0-1.8c0,0,0,0,0,0c0,0,0,0,0,0c0.1,0,0.2,0,0.4,0c0.1,0,0.2,0,0.4,0
	c0.3,0,0.6,0.1,0.8,0.2c2,0.5,3.6,1.9,4.3,3.8c0.2,0.4,0.3,0.9,0.4,1.4C10.6,13.1,10.6,13.4,10.6,13.7
	C10.6,13.7,10.6,13.7,10.6,13.7z M13.9,13.7C13.9,13.7,13.9,13.7,13.9,13.7C13.9,13.7,13.9,13.7,13.9,13.7c-0.6,0-1.2,0-1.8,0
	c0,0,0,0,0,0c0,0,0,0,0,0c0-0.2,0-0.4,0-0.6c0-0.2,0-0.4-0.1-0.6c-0.1-0.4-0.2-0.8-0.3-1.2c-0.4-1.2-1-2.2-1.9-3.1
	c-0.9-0.9-2-1.5-3.2-1.9C6.2,6.1,5.8,6.1,5.5,6C5.1,6,4.7,5.9,4.3,5.9c0,0,0,0-0.1,0c0,0,0,0,0,0c0-0.6,0-1.2,0-1.8c0,0,0,0,0,0
	c0.2,0,1,0,1.4,0.1c1,0.2,2,0.5,2.9,0.9c0.9,0.5,1.7,1.1,2.4,1.8c0.7,0.7,1.3,1.5,1.8,2.4c0.4,0.9,0.8,1.8,0.9,2.7
	C13.9,12.7,13.9,13.5,13.9,13.7z"/>
</svg>
