<?xml version="1.0" encoding="utf-8"?>
<!-- Generator: Adobe Illustrator 18.1.1, SVG Export Plug-In . SVG Version: 6.00 Build 0)  -->
<svg version="1.1" id="Layer_1" xmlns="http://www.w3.org/2000/svg" xmlns:xlink="http://www.w3.org/1999/xlink" x="0px" y="0px"
	 viewBox="0 0 24 24" enable-background="new 0 0 24 24" xml:space="preserve">
<path fill="#FFFFFF" d="M12,0C5.4,0,0,5.4,0,12c0,6.6,5.4,12,12,12c6.6,0,12-5.4,12-12C24,5.4,18.6,0,12,0z M18.8,9.4
	c0,0.1,0,0.3,0,0.4c0,4.2-3.2,9.1-9.1,9.1c-1.8,0-3.5-0.5-4.9-1.4c0.2,0,0.5,0,0.8,0c1.5,0,2.9-0.5,4-1.4c-1.4,0-2.6-0.9-3-2.2
	C6.8,13.9,7,14,7.2,14c0.3,0,0.6,0,0.8-0.1c-1.5-0.3-2.6-1.6-2.6-3.1c0,0,0,0,0,0c0.9,0.2,0.9,0.4,1.5,0.4C6,10.5,5.5,9.5,5.5,8.4
	c0-0.6,0.2-1.1,0.4-1.6c1.6,1.9,3.9,3.2,6.6,3.3c-0.1-0.2-0.1-0.5-0.1-0.7c0-1.8,1.4-3.2,3.2-3.2c0.9,0,1.7,0.4,2.3,1
	c0.7-0.1,1.4-0.4,2-0.8c-0.2,0.7-0.7,1.4-1.4,1.8c0.6-0.1,1.3-0.2,1.8-0.5C20,8.4,19.4,8.9,18.8,9.4z"/>
</svg>
